<svg width="42" height="30" viewBox="0 0 42 30" fill="none" xmlns="http://www.w3.org/2000/svg">
<path id="Vector" d="M35.0625 3.75H31.7914L29.7289 1.875C28.5347 0.789375 26.4392 0 24.75 0H16.5C14.8108 0 12.7153 0.789375 11.5211 1.875L9.45862 3.75H6.1875C2.77612 3.75 0 6.27375 0 9.375V24.375C0 27.4762 2.77612 30 6.1875 30H35.0625C38.4739 30 41.25 27.4762 41.25 24.375V9.375C41.25 6.27375 38.4739 3.75 35.0625 3.75ZM20.625 22.5C18.7102 22.4998 16.8739 21.808 15.5201 20.577C14.1664 19.3459 13.406 17.6764 13.4062 15.9356C13.4065 14.1949 14.1674 12.5256 15.5216 11.2948C16.8758 10.0641 18.7123 9.37288 20.6271 9.37312C22.5419 9.37337 24.3781 10.0651 25.7319 11.2962C27.0857 12.5272 27.8461 14.1968 27.8458 15.9375C27.8455 17.6782 27.0846 19.3476 25.7305 20.5783C24.3763 21.809 22.5398 22.5002 20.625 22.5ZM33 13.6856C32.6479 13.6856 32.2992 13.6226 31.9739 13.5001C31.6486 13.3776 31.353 13.198 31.1041 12.9717C30.8551 12.7454 30.6576 12.4766 30.5228 12.1809C30.3881 11.8852 30.3188 11.5682 30.3188 11.2481C30.3188 10.928 30.3881 10.6111 30.5228 10.3153C30.6576 10.0196 30.8551 9.7509 31.1041 9.52455C31.353 9.29821 31.6486 9.11866 31.9739 8.99617C32.2992 8.87367 32.6479 8.81063 33 8.81063C33.7111 8.81063 34.3931 9.06743 34.8959 9.52455C35.3988 9.98167 35.6812 10.6017 35.6812 11.2481C35.6812 11.8946 35.3988 12.5146 34.8959 12.9717C34.3931 13.4288 33.7111 13.6856 33 13.6856Z" fill="white"/>
</svg>
