<svg width="23" height="17" viewBox="0 0 23 17" fill="none" xmlns="http://www.w3.org/2000/svg">
<path id="Vector" d="M19.3744 2.52511H17.6529L16.5675 1.53836C15.939 0.967027 14.8362 0.551605 13.9472 0.551605H9.60553C8.71657 0.551605 7.61377 0.967027 6.98531 1.53836L5.89988 2.52511H4.1784C2.3831 2.52511 0.922119 3.85327 0.922119 5.48536V13.3794C0.922119 15.0115 2.3831 16.3396 4.1784 16.3396H19.3744C21.1697 16.3396 22.6306 15.0115 22.6306 13.3794V5.48536C22.6306 3.85327 21.1697 2.52511 19.3744 2.52511ZM11.7764 12.3926C10.7687 12.3925 9.80231 12.0284 9.08986 11.3806C8.37742 10.7327 7.97725 9.85409 7.97739 8.938C7.97753 8.02191 8.37798 7.1434 9.09063 6.49571C9.80328 5.84803 10.7698 5.48424 11.7775 5.48437C12.7852 5.4845 13.7515 5.84855 14.464 6.49641C15.1764 7.14428 15.5766 8.0229 15.5765 8.93899C15.5763 9.85508 15.1759 10.7336 14.4632 11.3813C13.7506 12.029 12.7841 12.3928 11.7764 12.3926ZM18.2889 7.7539C18.1036 7.7539 17.9202 7.72072 17.749 7.65626C17.5778 7.59179 17.4222 7.4973 17.2912 7.37819C17.1601 7.25907 17.0562 7.11766 16.9853 6.96202C16.9144 6.80639 16.8779 6.63958 16.8779 6.47113C16.8779 6.30267 16.9144 6.13586 16.9853 5.98023C17.0562 5.82459 17.1601 5.68318 17.2912 5.56407C17.4222 5.44495 17.5778 5.35046 17.749 5.28599C17.9202 5.22153 18.1036 5.18835 18.2889 5.18835C18.6632 5.18835 19.0221 5.3235 19.2867 5.56407C19.5513 5.80463 19.7 6.13091 19.7 6.47113C19.7 6.81134 19.5513 7.13762 19.2867 7.37819C19.0221 7.61875 18.6632 7.7539 18.2889 7.7539Z" fill="#00897B"/>
</svg>
