<svg width="45" height="42" viewBox="0 0 45 42" fill="none" xmlns="http://www.w3.org/2000/svg">
<g id="Group 266">
<rect id="Rectangle 82" x="0.0292969" width="44.0806" height="42" rx="20" fill="#00897B"/>
<path id="Vector" d="M16.3094 12C19.5397 10.1575 23.5984 10.1575 26.8287 12C30.0511 13.838 32.0883 17.2902 32.0883 21C32.0883 24.7098 30.0511 28.162 26.8287 30C23.5984 31.8425 19.5397 31.8425 16.3094 30C13.087 28.162 11.0498 24.7098 11.0498 21C11.0498 17.2902 13.087 13.838 16.3094 12ZM25.719 13.8881C23.1688 12.4335 19.9693 12.4335 17.4191 13.8881C14.8722 15.3408 13.2644 18.0679 13.2644 21C13.2644 23.9321 14.8722 26.6592 17.4191 28.1119C19.9693 29.5665 23.1688 29.5665 25.719 28.1119C28.2659 26.6592 29.8737 23.9321 29.8737 21C29.8737 18.0679 28.2659 15.3408 25.719 13.8881ZM21.569 25.3636C20.3944 25.3636 19.2678 24.9039 18.4372 24.0856C17.6065 23.2672 17.1399 22.1573 17.1399 21C17.1399 19.8427 17.6065 18.7328 18.4372 17.9144C19.2678 17.0961 20.3944 16.6364 21.569 16.6364C22.7437 16.6364 23.8703 17.0961 24.7009 17.9144C25.5315 18.7328 25.9982 19.8427 25.9982 21C25.9982 22.1573 25.5315 23.2672 24.7009 24.0856C23.8703 24.9039 22.7437 25.3636 21.569 25.3636ZM21.569 23.1818C22.1564 23.1818 22.7197 22.9519 23.135 22.5428C23.5503 22.1336 23.7836 21.5787 23.7836 21C23.7836 20.4213 23.5503 19.8664 23.135 19.4572C22.7197 19.0481 22.1564 18.8182 21.569 18.8182C20.9817 18.8182 20.4184 19.0481 20.0031 19.4572C19.5878 19.8664 19.3545 20.4213 19.3545 21C19.3545 21.5787 19.5878 22.1336 20.0031 22.5428C20.4184 22.9519 20.9817 23.1818 21.569 23.1818Z" fill="white"/>
</g>
</svg>
