<svg width="44" height="32" viewBox="0 0 44 32" fill="none" xmlns="http://www.w3.org/2000/svg">
<path d="M37.4 4H33.9108L31.7108 2C30.437 0.842 28.2018 0 26.4 0H17.6C15.7982 0 13.563 0.842 12.2892 2L10.0892 4H6.6C2.9612 4 0 6.692 0 10V26C0 29.308 2.9612 32 6.6 32H37.4C41.0388 32 44 29.308 44 26V10C44 6.692 41.0388 4 37.4 4ZM22 24C19.9575 23.9997 17.9989 23.2619 16.5548 21.9487C15.1108 20.6356 14.2997 18.8548 14.3 16.998C14.3003 15.1412 15.1119 13.3606 16.5564 12.0478C18.0008 10.7351 19.9597 9.99773 22.0022 9.998C24.0447 9.99826 26.0033 10.7361 27.4474 12.0493C28.8914 13.3624 29.7025 15.1432 29.7022 17C29.7019 18.8568 28.8903 20.6374 27.4458 21.9502C26.0014 23.2629 24.0425 24.0003 22 24ZM35.2 14.598C34.8244 14.598 34.4525 14.5307 34.1055 14.4001C33.7585 14.2694 33.4432 14.0779 33.1777 13.8365C32.9121 13.595 32.7014 13.3084 32.5577 12.993C32.414 12.6775 32.34 12.3394 32.34 11.998C32.34 11.6566 32.414 11.3185 32.5577 11.003C32.7014 10.6876 32.9121 10.401 33.1777 10.1595C33.4432 9.91809 33.7585 9.72657 34.1055 9.59591C34.4525 9.46525 34.8244 9.398 35.2 9.398C35.9585 9.398 36.686 9.67193 37.2223 10.1595C37.7587 10.6471 38.06 11.3084 38.06 11.998C38.06 12.6876 37.7587 13.3489 37.2223 13.8365C36.686 14.3241 35.9585 14.598 35.2 14.598Z" fill="#00897B"/>
</svg>
