<svg width="20" height="11" viewBox="0 0 20 11" fill="none" xmlns="http://www.w3.org/2000/svg">
<path id="Vector" d="M13.3333 8.8H17.7778V6.6H13.3333V8.8ZM13.3333 4.4H17.7778V2.2H13.3333V4.4ZM2.22222 11C1.61111 11 1.08815 10.7848 0.653333 10.3543C0.218519 9.92383 0.000740741 9.40573 0 8.8V2.2C0 1.595 0.217778 1.07727 0.653333 0.6468C1.08889 0.216333 1.61185 0.000733333 2.22222 0H7.77778C8.09259 0 8.35667 0.1056 8.57 0.3168C8.78333 0.528 8.88963 0.789067 8.88889 1.1C8.88815 1.41093 8.78148 1.67237 8.56889 1.8843C8.35629 2.09623 8.09259 2.20147 7.77778 2.2H2.22222V8.8H6.66667V6.6H5.55555C5.24074 6.6 4.97704 6.4944 4.76444 6.2832C4.55185 6.072 4.44518 5.81093 4.44444 5.5C4.4437 5.18907 4.55037 4.928 4.76444 4.7168C4.97852 4.5056 5.24222 4.4 5.55555 4.4H7.77778C8.09259 4.4 8.35667 4.5056 8.57 4.7168C8.78333 4.928 8.88963 5.18907 8.88889 5.5V8.8C8.88889 9.405 8.67148 9.9231 8.23667 10.3543C7.80185 10.7855 7.27852 11.0007 6.66667 11H2.22222ZM12.2222 11C11.9074 11 11.6437 10.8944 11.4311 10.6832C11.2185 10.472 11.1118 10.2109 11.1111 9.9V1.1C11.1111 0.788333 11.2178 0.527267 11.4311 0.3168C11.6444 0.106333 11.9081 0.000733333 12.2222 0H17.7778C18.3889 0 18.9122 0.2156 19.3478 0.6468C19.7833 1.078 20.0007 1.59573 20 2.2V3.85C20 4.30833 19.8381 4.6981 19.5144 5.0193C19.1907 5.3405 18.797 5.50073 18.3333 5.5C18.7963 5.5 19.19 5.6606 19.5144 5.9818C19.8389 6.303 20.0007 6.6924 20 7.15V8.8C20 9.405 19.7826 9.9231 19.3478 10.3543C18.913 10.7855 18.3896 11.0007 17.7778 11H12.2222Z" fill="white"/>
</svg>
