<svg width="34" height="34" viewBox="0 0 34 34" fill="none" xmlns="http://www.w3.org/2000/svg">
<g id="Group 216">
<circle id="Ellipse 18" cx="17" cy="17" r="17" fill="#00897B"/>
<path id="Vector" d="M17.5012 13.8571C17.5012 14.6149 17.1972 15.3416 16.6561 15.8774C16.1151 16.4133 15.3813 16.7143 14.6161 16.7143C13.8509 16.7143 13.1171 16.4133 12.576 15.8774C12.035 15.3416 11.731 14.6149 11.731 13.8571C11.731 13.0994 12.035 12.3727 12.576 11.8368C13.1171 11.301 13.8509 11 14.6161 11C15.3813 11 16.1151 11.301 16.6561 11.8368C17.1972 12.3727 17.5012 13.0994 17.5012 13.8571ZM21.5402 16.7143C22.1524 16.7143 22.7394 16.4735 23.1723 16.0448C23.6051 15.6162 23.8483 15.0348 23.8483 14.4286C23.8483 13.8224 23.6051 13.241 23.1723 12.8123C22.7394 12.3837 22.1524 12.1429 21.5402 12.1429C20.9281 12.1429 20.341 12.3837 19.9082 12.8123C19.4754 13.241 19.2322 13.8224 19.2322 14.4286C19.2322 15.0348 19.4754 15.6162 19.9082 16.0448C20.341 16.4735 20.9281 16.7143 21.5402 16.7143ZM20.3862 19.6789V19.5714C20.3862 18.9532 20.1837 18.3517 19.8092 17.8571H23.5863C24.3664 17.8571 25 18.4834 25 19.2571C25 19.2571 25 21.8571 21.5379 21.8571C20.8478 21.8571 20.295 21.7543 19.8531 21.5886C20.1276 21.0879 20.3028 20.5397 20.3689 19.9737C20.3758 19.9029 20.3804 19.8423 20.3828 19.792L20.3862 19.6789ZM19.2322 19.5714C19.2322 19.1168 19.0498 18.6807 18.7252 18.3592C18.4005 18.0378 17.9603 17.8571 17.5012 17.8571H11.731C11.2719 17.8571 10.8316 18.0378 10.507 18.3592C10.1824 18.6807 10 19.1168 10 19.5714V19.6571C10 19.6571 10 23 14.6161 23C19.0152 23 19.2218 19.9646 19.2322 19.6789V19.5714Z" fill="white"/>
</g>
</svg>
