<svg width="43" height="31" viewBox="0 0 43 31" fill="none" xmlns="http://www.w3.org/2000/svg">
<path id="Vector" d="M36.0292 3.85339H32.6679L30.5485 1.92669C29.3214 0.811138 27.1681 0 25.4323 0H16.9549C15.2191 0 13.0659 0.811138 11.8388 1.92669L9.7194 3.85339H6.35809C2.85266 3.85339 0 6.44671 0 9.63347V25.047C0 28.2338 2.85266 30.8271 6.35809 30.8271H36.0292C39.5346 30.8271 42.3872 28.2338 42.3872 25.047V9.63347C42.3872 6.44671 39.5346 3.85339 36.0292 3.85339ZM21.1936 23.1203C19.226 23.1201 17.3391 22.4092 15.948 21.1443C14.5569 19.8793 13.7756 18.1637 13.7759 16.375C13.7761 14.5862 14.558 12.8709 15.9495 11.6062C17.341 10.3416 19.2281 9.63128 21.1957 9.63154C23.1633 9.63179 25.0502 10.3426 26.4413 11.6076C27.8324 12.8726 28.6138 14.5882 28.6135 16.3769C28.6132 18.1656 27.8313 19.881 26.4398 21.1456C25.0483 22.4102 23.1612 23.1206 21.1936 23.1203ZM33.9098 14.0629C33.548 14.0629 33.1897 13.9981 32.8554 13.8723C32.5212 13.7464 32.2174 13.5619 31.9616 13.3293C31.7058 13.0967 31.5028 12.8206 31.3643 12.5167C31.2259 12.2129 31.1546 11.8872 31.1546 11.5582C31.1546 11.2293 31.2259 10.9036 31.3643 10.5997C31.5028 10.2958 31.7058 10.0197 31.9616 9.78714C32.2174 9.55456 32.5212 9.37006 32.8554 9.24419C33.1897 9.11832 33.548 9.05353 33.9098 9.05353C34.6405 9.05353 35.3413 9.31742 35.858 9.78714C36.3747 10.2569 36.665 10.8939 36.665 11.5582C36.665 12.2225 36.3747 12.8596 35.858 13.3293C35.3413 13.799 34.6405 14.0629 33.9098 14.0629Z" fill="#00897B"/>
</svg>
