<svg width="19" height="19" viewBox="0 0 19 19" fill="none" xmlns="http://www.w3.org/2000/svg">
<path id="Vector" d="M9.5 0C7.62108 0 5.78435 0.557165 4.22209 1.60104C2.65982 2.64491 1.44218 4.12861 0.723149 5.86451C0.0041162 7.6004 -0.184015 9.51054 0.182544 11.3534C0.549104 13.1962 1.45389 14.8889 2.78249 16.2175C4.11109 17.5461 5.80383 18.4509 7.64665 18.8175C9.48946 19.184 11.3996 18.9959 13.1355 18.2769C14.8714 17.5578 16.3551 16.3402 17.399 14.7779C18.4428 13.2156 19 11.3789 19 9.5C18.9973 6.98126 17.9956 4.56644 16.2146 2.78542C14.4336 1.0044 12.0187 0.00265983 9.5 0ZM13.0004 6.57692H13.8846C14.0784 6.57692 14.2643 6.65391 14.4013 6.79096C14.5384 6.92801 14.6154 7.11388 14.6154 7.30769C14.6154 7.5015 14.5384 7.68738 14.4013 7.82442C14.2643 7.96147 14.0784 8.03846 13.8846 8.03846H13.1365C13.0441 9.03643 12.5828 9.96403 11.8426 10.6398C11.1025 11.3156 10.1368 11.6909 9.13462 11.6923H7.97635L12.8716 15.5005C12.951 15.5581 13.0181 15.631 13.0687 15.715C13.1194 15.799 13.1526 15.8923 13.1664 15.9894C13.1802 16.0865 13.1744 16.1854 13.1491 16.2802C13.1239 16.375 13.0799 16.4637 13.0197 16.5411C12.9594 16.6185 12.8842 16.683 12.7985 16.7308C12.7129 16.7785 12.6184 16.8085 12.5209 16.819C12.4234 16.8294 12.3248 16.8202 12.2309 16.7917C12.137 16.7632 12.0499 16.7162 11.9746 16.6533L5.39765 11.5379C5.27763 11.4444 5.18981 11.3157 5.14642 11.1699C5.10304 11.024 5.10627 10.8683 5.15565 10.7244C5.20503 10.5804 5.29811 10.4555 5.42189 10.367C5.54568 10.2786 5.694 10.2309 5.84616 10.2308H9.13462C9.74961 10.2307 10.344 10.0091 10.8089 9.60642C11.2737 9.20379 11.578 8.64714 11.6658 8.03846H5.84616C5.65234 8.03846 5.46647 7.96147 5.32943 7.82442C5.19238 7.68738 5.11539 7.5015 5.11539 7.30769C5.11539 7.11388 5.19238 6.92801 5.32943 6.79096C5.46647 6.65391 5.65234 6.57692 5.84616 6.57692H11.4448C11.2374 6.13973 10.9102 5.77034 10.5013 5.51163C10.0924 5.25293 9.6185 5.11553 9.13462 5.11538H5.84616C5.65234 5.11538 5.46647 5.03839 5.32943 4.90135C5.19238 4.7643 5.11539 4.57843 5.11539 4.38461C5.11539 4.1908 5.19238 4.00493 5.32943 3.86788C5.46647 3.73084 5.65234 3.65385 5.84616 3.65385H13.8846C14.0784 3.65385 14.2643 3.73084 14.4013 3.86788C14.5384 4.00493 14.6154 4.1908 14.6154 4.38461C14.6154 4.57843 14.5384 4.7643 14.4013 4.90135C14.2643 5.03839 14.0784 5.11538 13.8846 5.11538H12.2331C12.5874 5.54408 12.8487 6.0418 13.0004 6.57692Z" fill="white"/>
</svg>
