<svg width="19" height="18" viewBox="0 0 19 18" fill="none" xmlns="http://www.w3.org/2000/svg">
<g id="Vector">
<path d="M18 8.99954H6.64676H18ZM2.63935 8.99954H1H2.63935ZM18 15.0145H12.7181H18ZM8.71065 15.0145H1H8.71065ZM18 2.98464H15.1468H18ZM11.1394 2.98464H1H11.1394ZM13.1426 4.96927C13.4057 4.96927 13.6662 4.91794 13.9092 4.8182C14.1522 4.71847 14.3731 4.57228 14.5591 4.38799C14.7451 4.2037 14.8927 3.98491 14.9934 3.74412C15.094 3.50334 15.1458 3.24526 15.1458 2.98464C15.1458 2.72401 15.094 2.46594 14.9934 2.22515C14.8927 1.98436 14.7451 1.76558 14.5591 1.58129C14.3731 1.397 14.1522 1.25081 13.9092 1.15107C13.6662 1.05133 13.4057 1 13.1426 1C12.6113 1 12.1018 1.2091 11.7261 1.58129C11.3504 1.95348 11.1394 2.45828 11.1394 2.98464C11.1394 3.511 11.3504 4.0158 11.7261 4.38799C12.1018 4.76018 12.6113 4.96927 13.1426 4.96927ZM4.64259 10.9842C5.17389 10.9842 5.68342 10.7751 6.0591 10.4029C6.43478 10.0307 6.64584 9.5259 6.64584 8.99954C6.64584 8.47319 6.43478 7.96839 6.0591 7.59619C5.68342 7.224 5.17389 7.01491 4.64259 7.01491C4.1113 7.01491 3.60177 7.224 3.22609 7.59619C2.85041 7.96839 2.63935 8.47319 2.63935 8.99954C2.63935 9.5259 2.85041 10.0307 3.22609 10.4029C3.60177 10.7751 4.1113 10.9842 4.64259 10.9842ZM10.7139 17C11.2453 17 11.755 16.7909 12.1307 16.4186C12.5065 16.0463 12.7181 15.5409 12.7181 15.0145C12.7181 14.488 12.5065 13.9835 12.1307 13.6112C11.755 13.239 11.2453 13.0298 10.7139 13.0298C10.1826 13.0298 9.67307 13.2389 9.29739 13.6111C8.9217 13.9833 8.71065 14.4881 8.71065 15.0145C8.71065 15.5408 8.9217 16.0456 9.29739 16.4178C9.67307 16.79 10.1826 17 10.7139 17Z" fill="white"/>
<path d="M18 8.99954H6.64676M2.63935 8.99954H1M2.63935 8.99954C2.63935 8.47319 2.85041 7.96839 3.22609 7.59619C3.60177 7.224 4.1113 7.01491 4.64259 7.01491C5.17389 7.01491 5.68342 7.224 6.0591 7.59619C6.43478 7.96839 6.64584 8.47319 6.64584 8.99954C6.64584 9.5259 6.43478 10.0307 6.0591 10.4029C5.68342 10.7751 5.17389 10.9842 4.64259 10.9842C4.1113 10.9842 3.60177 10.7751 3.22609 10.4029C2.85041 10.0307 2.63935 9.5259 2.63935 8.99954ZM18 15.0145H12.7181M12.7181 15.0145C12.7181 15.5409 12.5065 16.0463 12.1307 16.4186C11.755 16.7909 11.2453 17 10.7139 17C10.1826 17 9.67307 16.79 9.29739 16.4178C8.9217 16.0456 8.71065 15.5408 8.71065 15.0145M12.7181 15.0145C12.7181 14.488 12.5065 13.9835 12.1307 13.6112C11.755 13.239 11.2453 13.0298 10.7139 13.0298C10.1826 13.0298 9.67307 13.2389 9.29739 13.6111C8.9217 13.9833 8.71065 14.4881 8.71065 15.0145M8.71065 15.0145H1M18 2.98464H15.1468M11.1394 2.98464H1M11.1394 2.98464C11.1394 2.45828 11.3504 1.95348 11.7261 1.58129C12.1018 1.2091 12.6113 1 13.1426 1C13.4057 1 13.6662 1.05133 13.9092 1.15107C14.1522 1.25081 14.3731 1.397 14.5591 1.58129C14.7451 1.76558 14.8927 1.98436 14.9934 2.22515C15.094 2.46594 15.1458 2.72401 15.1458 2.98464C15.1458 3.24526 15.094 3.50334 14.9934 3.74413C14.8927 3.98491 14.7451 4.2037 14.5591 4.38799C14.3731 4.57228 14.1522 4.71847 13.9092 4.8182C13.6662 4.91794 13.4057 4.96927 13.1426 4.96927C12.6113 4.96927 12.1018 4.76018 11.7261 4.38799C11.3504 4.0158 11.1394 3.511 11.1394 2.98464Z" stroke="white" stroke-width="1.5" stroke-miterlimit="10" stroke-linecap="round"/>
</g>
</svg>
