<svg width="20" height="20" viewBox="0 0 20 20" fill="none" xmlns="http://www.w3.org/2000/svg">
<path id="Vector" fill-rule="evenodd" clip-rule="evenodd" d="M20 10C20 11.3132 19.7413 12.6136 19.2388 13.8268C18.7362 15.0401 17.9997 16.1425 17.0711 17.0711C16.1425 17.9997 15.0401 18.7362 13.8268 19.2388C12.6136 19.7413 11.3132 20 10 20C8.68678 20 7.38642 19.7413 6.17317 19.2388C4.95991 18.7362 3.85752 17.9997 2.92893 17.0711C2.00035 16.1425 1.26375 15.0401 0.761205 13.8268C0.258658 12.6136 -1.95685e-08 11.3132 0 10C3.95203e-08 7.34784 1.05357 4.8043 2.92893 2.92893C4.8043 1.05357 7.34784 0 10 0C12.6522 0 15.1957 1.05357 17.0711 2.92893C18.9464 4.8043 20 7.34784 20 10ZM10.5556 9.77V4.41111C10.5556 4.26377 10.497 4.12246 10.3928 4.01827C10.2887 3.91409 10.1473 3.85556 10 3.85556C9.85266 3.85556 9.71135 3.91409 9.60716 4.01827C9.50298 4.12246 9.44444 4.26377 9.44444 4.41111V9.98333C9.44207 10.0591 9.45524 10.1346 9.48314 10.2051C9.51104 10.2756 9.55308 10.3397 9.60667 10.3933L12.75 13.5356C12.8012 13.5886 12.8626 13.6309 12.9303 13.6601C12.9981 13.6892 13.071 13.7045 13.1448 13.7051C13.2185 13.7058 13.2917 13.6917 13.36 13.6638C13.4283 13.6359 13.4903 13.5946 13.5424 13.5424C13.5946 13.4903 13.6359 13.4283 13.6638 13.36C13.6917 13.2917 13.7058 13.2185 13.7051 13.1448C13.7045 13.071 13.6892 12.9981 13.6601 12.9303C13.6309 12.8626 13.5886 12.8012 13.5356 12.75L10.5556 9.77Z" fill="white"/>
</svg>
