<svg width="20" height="11" viewBox="0 0 20 11" fill="none" xmlns="http://www.w3.org/2000/svg">
<path id="Vector" d="M18.4375 0C17.5744 0 16.875 0.684139 16.875 1.52778C16.875 1.70103 16.911 1.8645 16.965 2.01972L13.1562 5.22653C12.8891 5.01844 12.5556 4.88889 12.1875 4.88889C11.7628 4.88889 11.3788 5.05572 11.0975 5.32461L8.11406 3.86406C8.05596 3.07175 7.38752 2.44444 6.5625 2.44444C5.69971 2.44444 5 3.12858 5 3.97222C5 4.20322 5.05625 4.41986 5.15 4.61603L2.10812 8.04558C1.9375 7.98325 1.75531 7.94444 1.5625 7.94444C0.699688 7.94444 0 8.62858 0 9.47222C0 10.3159 0.699688 11 1.5625 11C2.42531 11 3.125 10.3159 3.125 9.47222C3.125 9.26903 3.0825 9.07563 3.00875 8.89839L6.1 5.42422C6.24719 5.46883 6.40031 5.5 6.5625 5.5C7.01719 5.5 7.42279 5.30689 7.70842 5.00347L10.6265 6.43408C10.6369 7.26947 11.3306 7.94444 12.1875 7.94444C13.0506 7.94444 13.75 7.26031 13.75 6.41667C13.75 6.38947 13.7434 6.36411 13.7419 6.33722L17.8062 2.92325C17.9997 3.00697 18.2122 3.05556 18.4375 3.05556C19.3006 3.05556 20 2.37172 20 1.52778C20 0.684139 19.3006 0 18.4375 0Z" fill="#00897B"/>
</svg>
