<svg width="20" height="11" viewBox="0 0 20 11" fill="none" xmlns="http://www.w3.org/2000/svg">
<path id="Vector" d="M1.5625 0C2.42562 0 3.12498 0.684139 3.12498 1.52778C3.12498 1.70103 3.08904 1.8645 3.035 2.01972L6.84375 5.22653C7.11094 5.01844 7.44438 4.88889 7.8125 4.88889C8.23717 4.88889 8.62123 5.05572 8.9025 5.32461L11.8859 3.86406C11.944 3.07175 12.6125 2.44444 13.4375 2.44444C14.3003 2.44444 15 3.12858 15 3.97222C15 4.20322 14.9438 4.41986 14.85 4.61603L17.8919 8.04558C18.0625 7.98325 18.2447 7.94444 18.4375 7.94444C19.3003 7.94444 20 8.62858 20 9.47222C20 10.3159 19.3003 11 18.4375 11C17.5747 11 16.875 10.3159 16.875 9.47222C16.875 9.26903 16.9175 9.07563 16.9913 8.89839L13.9 5.42422C13.7528 5.46883 13.5997 5.5 13.4375 5.5C12.9828 5.5 12.5772 5.30689 12.2916 5.00347L9.37346 6.43408C9.36313 7.26947 8.66939 7.94444 7.8125 7.94444C6.94936 7.94444 6.25 7.26031 6.25 6.41667C6.25 6.38947 6.25656 6.36411 6.25813 6.33722L2.19375 2.92325C2.00031 3.00697 1.78783 3.05556 1.5625 3.05556C0.699356 3.05556 0 2.37172 0 1.52778C0 0.684139 0.699375 0 1.5625 0Z" fill="#EA4335"/>
</svg>
