<svg width="51" height="38" viewBox="0 0 51 38" fill="none" xmlns="http://www.w3.org/2000/svg">
<path d="M43.2438 5.01074H39.2094L36.6656 2.69824C35.1928 1.3593 32.6083 0.385742 30.525 0.385742H20.35C18.2667 0.385742 15.6822 1.3593 14.2094 2.69824L11.6656 5.01074H7.63125C3.42389 5.01074 0 8.12337 0 11.9482V30.4482C0 34.2731 3.42389 37.3857 7.63125 37.3857H43.2438C47.4511 37.3857 50.875 34.2731 50.875 30.4482V11.9482C50.875 8.12337 47.4511 5.01074 43.2438 5.01074ZM25.4375 28.1357C23.0759 28.1354 20.8112 27.2823 19.1415 25.764C17.4719 24.2457 16.534 22.1866 16.5344 20.0397C16.5347 17.8928 17.4732 15.8339 19.1433 14.3161C20.8134 12.7982 23.0785 11.9456 25.44 11.9459C27.8016 11.9462 30.0664 12.7994 31.736 14.3177C33.4057 15.836 34.3435 17.8951 34.3432 20.042C34.3428 22.1889 33.4044 24.2477 31.7342 25.7656C30.0641 27.2835 27.7991 28.136 25.4375 28.1357ZM40.7 17.2647C40.2657 17.2647 39.8357 17.1869 39.4345 17.0358C39.0333 16.8848 38.6688 16.6633 38.3617 16.3842C38.0546 16.105 37.811 15.7736 37.6448 15.4089C37.4787 15.0441 37.3931 14.6532 37.3931 14.2584C37.3931 13.8636 37.4787 13.4727 37.6448 13.108C37.811 12.7433 38.0546 12.4118 38.3617 12.1327C38.6688 11.8535 39.0333 11.6321 39.4345 11.481C39.8357 11.3299 40.2657 11.2522 40.7 11.2522C41.577 11.2522 42.4182 11.5689 43.0383 12.1327C43.6585 12.6965 44.0069 13.4611 44.0069 14.2584C44.0069 15.0557 43.6585 15.8204 43.0383 16.3842C42.4182 16.948 41.577 17.2647 40.7 17.2647Z" fill="white"/>
</svg>
